<svg width="47" height="49" fill="none" xmlns="http://www.w3.org/2000/svg"><path d="M27.025 6.125c0-.975-.371-1.91-1.032-2.599A3.454 3.454 0 0023.5 2.45c-.935 0-1.831.387-2.493 1.076a3.756 3.756 0 00-1.032 2.599h-2.35a6.26 6.26 0 011.72-4.331A5.756 5.756 0 0123.5 0c1.558 0 3.052.645 4.154 1.794a6.26 6.26 0 011.721 4.331H39.95c.312 0 .61.13.83.359.221.23.345.541.345.866 0 .325-.124.636-.344.866-.22.23-.52.359-.831.359h-1.302l-3.046 27.514a4.971 4.971 0 01-1.542 3.095 4.592 4.592 0 01-3.127 1.241H16.067a4.592 4.592 0 01-3.127-1.241 4.971 4.971 0 01-1.542-3.095L8.35 8.575h-1.3c-.275 0-.541-.1-.753-.284a1.237 1.237 0 01-.403-.72l-.019-.221c0-.325.124-.636.344-.866.22-.23.52-.359.831-.359h19.975zm9.254 2.45H10.72l3.012 27.232c.066.597.341 1.148.772 1.548.43.4.987.62 1.564.62h14.866c.576 0 1.133-.221 1.563-.621.43-.4.704-.95.77-1.547L36.28 8.575zM19.975 14.7c.576 0 1.057.38 1.156.88l.019.193V30.78c0 .59-.526 1.071-1.175 1.071-.576 0-1.058-.38-1.156-.88l-.019-.193V15.776c0-.593.526-1.073 1.175-1.073V14.7zm7.05 0c.576 0 1.058.38 1.156.88l.019.193V30.78c0 .59-.526 1.071-1.175 1.071-.576 0-1.057-.38-1.156-.88l-.019-.193V15.776c0-.593.526-1.073 1.175-1.073V14.7z" fill="#000"/></svg>