<svg width="23" height="23" fill="none" xmlns="http://www.w3.org/2000/svg"><path d="M11.499 5.914a5.587 5.587 0 100 11.175 5.587 5.587 0 000-11.175zm0 9.216a3.63 3.63 0 110-7.26 3.63 3.63 0 010 7.26zm5.809-8.12a1.303 1.303 0 100-2.604 1.303 1.303 0 000 2.605z" fill="#000"/><path d="M21.81 4.384a5.565 5.565 0 00-3.18-3.18 7.982 7.982 0 00-2.642-.508c-1.164-.05-1.532-.065-4.483-.065-2.95 0-3.33 0-4.483.065a7.92 7.92 0 00-2.64.508 5.558 5.558 0 00-3.18 3.18 7.957 7.957 0 00-.507 2.641C.643 8.188.627 8.556.627 11.508c0 2.951 0 3.327.068 4.483a7.97 7.97 0 00.506 2.643 5.57 5.57 0 003.183 3.18c.843.33 1.736.514 2.64.544 1.164.05 1.533.066 4.483.066 2.951 0 3.33 0 4.483-.066a7.993 7.993 0 002.642-.506 5.574 5.574 0 003.181-3.182 7.956 7.956 0 00.506-2.641c.052-1.163.068-1.531.068-4.483s0-3.327-.068-4.483a7.95 7.95 0 00-.508-2.68zm-1.47 11.518a6.094 6.094 0 01-.376 2.04 3.611 3.611 0 01-2.069 2.067 6.023 6.023 0 01-2.017.376c-1.148.053-1.472.066-4.416.066-2.946 0-3.246 0-4.416-.066a5.993 5.993 0 01-2.017-.376 3.607 3.607 0 01-2.077-2.068 6.138 6.138 0 01-.376-2.016c-.052-1.148-.064-1.472-.064-4.416 0-2.944 0-3.245.064-4.416a6.087 6.087 0 01.376-2.038 3.608 3.608 0 012.077-2.07 6.054 6.054 0 012.017-.375c1.149-.052 1.472-.066 4.416-.066 2.945 0 3.247 0 4.416.066a6.002 6.002 0 012.018.376 3.613 3.613 0 012.068 2.069 6.14 6.14 0 01.376 2.016c.052 1.15.065 1.472.065 4.417 0 2.943 0 3.26-.052 4.415h-.013v-.001z" fill="#000"/></svg>