<svg width="72" height="77" viewBox="0 0 72 77" fill="none" xmlns="http://www.w3.org/2000/svg">
<path fill-rule="evenodd" clip-rule="evenodd" d="M0.214106 0.394926C0.0962536 0.513024 0 6.30553 0 13.2676V25.9254H13.425H26.8499L30.5943 20.5141C32.6539 17.5378 34.4384 14.932 34.56 14.7232C34.6816 14.5143 34.3906 13.775 33.9128 13.0804L33.0442 11.8174L29.1221 17.343L25.2 22.8685L19.7053 22.8795C16.6832 22.8856 11.7807 23.0018 8.81053 23.1377L3.41053 23.3853V18.9667V14.5481L11.6526 14.4459L19.8947 14.3434L20.0118 12.927L20.1289 11.5102L11.8645 11.4081L3.6 11.3055L3.492 7.41322L3.384 3.52092H13.0604H22.7368V2.00197V0.483025L12.9789 0.421508C7.6123 0.387332 2.59276 0.319359 1.82463 0.269993C1.05689 0.220627 0.331959 0.276828 0.214106 0.394926ZM54.9474 3.46928V6.93855H56.631H58.3143L58.431 5.32467L58.5474 3.71079L61.7472 3.83155C63.507 3.89762 65.4992 4.18318 66.1744 4.46609C69.4148 5.82251 69.2094 10.5814 65.8216 12.6513C64.8803 13.2266 63.9144 13.3914 61.4842 13.3926C58.4019 13.3941 58.3579 13.3808 58.3579 12.4447C58.3579 11.5729 58.2188 11.4954 56.6526 11.4954H54.9474V18.7104V25.9254H56.6526H58.3579V21.236V16.5467L61.978 16.3082C64.2104 16.1612 66.2078 15.7997 67.1885 15.3649C73.1831 12.7079 73.6784 3.98686 67.9915 1.22807C66.4515 0.481127 65.434 0.337586 60.577 0.181135L54.9474 0V3.46928ZM31.7213 3.8156C32.7198 5.64859 34.8158 9.49038 36.3789 12.3525L39.2211 17.5564L41.0487 17.564L42.8768 17.5712L41.7479 15.5776C41.1272 14.4809 39.3025 11.195 37.6931 8.27485C36.0834 5.35505 34.4899 2.58981 34.1519 2.13032C33.4095 1.12136 32.1302 0.483025 30.8509 0.483025C29.9096 0.483025 29.913 0.496316 31.7213 3.8156ZM39.802 2.23095C38.5522 3.97471 38.5511 3.98192 39.1858 5.31594C39.5356 6.05111 39.8853 6.58881 39.9627 6.51097C40.511 5.95807 43.9579 1.00972 43.9579 0.775802C43.9579 0.614794 43.3046 0.483025 42.5065 0.483025C41.2151 0.483025 40.9165 0.676312 39.802 2.23095ZM0 41.4946V54.4057H24.3125H48.625L48.3908 46.8318L48.157 39.258L46.7204 36.484L45.2842 33.71L45.1827 42.5389L45.0807 51.3678H35.6142H26.1474V47.0008V42.6338H34.4842H42.8211V41.1149V39.5959H34.4842H26.1474V35.6087V31.6214H35.2118H44.2758L43.6782 30.0964L43.0802 28.5714L32.8138 28.6724L22.5474 28.7734L22.4469 40.0706L22.3465 51.3678H12.8785H3.41053V39.9757V28.5836H1.70526H0V41.4946ZM46.8205 31.124C47.6109 32.5465 48.542 34.2226 48.8899 34.8492C49.2378 35.4758 51.1075 38.8683 53.0451 42.3885C54.9822 45.9087 56.9501 49.2348 57.4181 49.7797C58.8357 51.4316 59.7195 50.6406 62.7014 45.0512C64.1349 42.3642 66.0888 38.7985 67.0434 37.1276L68.7789 34.0897L68.8797 44.2477L68.9809 54.4057H70.4903H72V41.4946V28.5836H70.2997C68.2609 28.5836 68.5584 28.1769 62.8674 38.7415C60.7017 42.7622 58.8403 46.0514 58.7308 46.0514C58.5406 46.0514 57.4234 44.0757 51.6437 33.5201L49.0445 28.7734L47.2138 28.6557L45.3831 28.5384L46.8205 31.124ZM18.1895 73.2026V76.8101L19.9895 76.7437L21.7895 76.6776L20.1789 76.5322C18.5859 76.3882 18.5684 76.3708 18.5684 74.9126C18.5684 73.4886 18.6169 73.4331 19.9895 73.2892L21.4105 73.1404L19.9895 73.0766C18.5984 73.0143 18.5684 72.9812 18.5684 71.5155C18.5684 70.0303 18.5809 70.0174 20.1789 69.8731L21.7895 69.7277L19.9895 69.6616L18.1895 69.5951V73.2026ZM23.5031 69.7918C23.4985 70.0045 23.9476 70.846 24.5008 71.662L25.5069 73.1453L24.4789 74.9779C23.9135 75.9857 23.5353 76.8101 23.638 76.8101C23.7411 76.8101 24.2087 76.1266 24.6771 75.2912C25.1458 74.4558 25.6369 73.7722 25.7684 73.7722C25.8999 73.7722 26.391 74.4558 26.8598 75.2912C27.3282 76.1266 27.8022 76.8101 27.9129 76.8101C28.0235 76.8101 27.6461 76.0096 27.0739 75.0314L26.0341 73.2531L27.0599 71.4239C27.6241 70.418 28.0016 69.5951 27.8989 69.5951C27.7958 69.5951 27.3282 70.2787 26.8598 71.1141C25.9242 72.7819 25.5543 72.9744 25.2193 71.9685C24.9264 71.089 23.5141 69.2974 23.5031 69.7918ZM30.1896 69.8484C30.0505 69.9874 29.9368 71.6393 29.9368 73.519C29.9368 75.3987 30.0335 76.8401 30.1513 76.7216C30.2692 76.6036 30.3605 75.0482 30.3537 73.2657C30.3423 70.2168 30.3916 70.0147 31.1813 69.8613C31.9744 69.7075 31.9771 69.6958 31.2317 69.6468C30.7974 69.6183 30.3283 69.7091 30.1896 69.8484ZM41.1791 69.8484C41.04 69.9874 40.9263 71.6108 40.9263 73.4559V76.8101L42.9158 76.7418L44.9053 76.6734L43.1053 76.531L41.3053 76.3886V74.9137C41.3053 73.4886 41.3538 73.4331 42.7263 73.2892L44.1474 73.1404L42.7263 73.0766C41.3352 73.0143 41.3053 72.9812 41.3053 71.5155C41.3053 70.0303 41.3178 70.0174 42.9158 69.8731L44.5263 69.7277L42.9791 69.6616C42.128 69.6251 41.3178 69.7091 41.1791 69.8484ZM46.6821 73.3093L46.7538 77L46.9664 73.5824L47.1789 70.1647L47.9785 71.8963C48.4181 72.8487 48.985 74.256 49.2378 75.0238C49.8058 76.749 50.2431 77.0543 50.76 76.0863C51.3227 75.0326 51.2541 74.6342 50.6524 75.459C50.1969 76.0829 50.0248 75.8486 48.916 73.0921C47.1297 68.6515 46.5927 68.7035 46.6821 73.3093ZM53.1474 70.0698C52.6032 70.7548 51.1211 74.2416 51.2985 74.4197C51.3811 74.5021 51.8521 73.59 52.3455 72.3927L53.2421 70.2156L53.4547 73.6078L53.6673 77L53.7389 73.2976C53.7783 71.261 53.7461 69.5951 53.6673 69.5951C53.5888 69.5951 53.3547 69.8089 53.1474 70.0698ZM32.9173 70.4792C33.2109 70.8357 33.3614 71.6062 33.2651 72.2616C33.1643 72.9501 33.2344 73.2778 33.4387 73.0731C33.9658 72.5449 33.6096 70.2471 32.9684 70.0371C32.4822 69.8784 32.4746 69.9422 32.9173 70.4792ZM36.0773 73.4874L36 76.8101L37.6105 76.7463L39.2211 76.6825L37.8152 76.5344L36.4089 76.3863L36.2816 73.2755L36.1542 70.1647L36.0773 73.4874Z" fill="black"/>
</svg>
