<svg width="13" height="24" viewBox="0 0 13 24" fill="none" xmlns="http://www.w3.org/2000/svg">
<path d="M12.6668 12.0002C12.6676 12.3896 12.5319 12.767 12.2835 13.0669L3.95013 23.0669C3.66724 23.4072 3.26072 23.6213 2.82001 23.6619C2.3793 23.7025 1.94049 23.5664 1.60013 23.2835C1.25977 23.0006 1.04573 22.5941 1.0051 22.1534C0.964467 21.7127 1.10057 21.2739 1.38347 20.9335L8.85013 12.0002L1.65013 3.06686C1.51169 2.89638 1.4083 2.70022 1.34592 2.48965C1.28353 2.27909 1.26338 2.05827 1.28661 1.83989C1.30984 1.62151 1.376 1.40987 1.48129 1.21714C1.58658 1.02441 1.72892 0.854395 1.90013 0.716856C2.0715 0.564224 2.27255 0.448626 2.49067 0.377304C2.70879 0.305983 2.93929 0.280478 3.16773 0.302383C3.39617 0.324287 3.61762 0.393131 3.81822 0.504604C4.01881 0.616076 4.19423 0.767775 4.33347 0.950191L12.3835 10.9502C12.5927 11.2587 12.6924 11.6284 12.6668 12.0002Z" fill="black"/>
</svg>
